<?xml version="1.0" encoding="UTF-8"?>
<svg width="80px" height="80px" viewBox="0 0 80 80" version="1.1" xmlns="http://www.w3.org/2000/svg" xmlns:xlink="http://www.w3.org/1999/xlink">
    <!-- Generator: Sketch 51.2 (57519) - http://www.bohemiancoding.com/sketch -->
    <title>new logo</title>
    <desc>Created with Sketch.</desc>
    <defs></defs>
    <g id="new-logo" stroke="none" stroke-width="1" fill="none" fill-rule="evenodd">
        <rect id="Rectangle-5" fill="#495057" fill-rule="nonzero" x="0" y="0" width="80" height="80" rx="40"></rect>
        <path d="M22,57.3247423 L27.8453608,48.6958763 C30.9072165,51.4793814 35.6391753,53.1494845 40.185567,53.1494845 C43.4329897,53.1494845 45.9381443,51.5721649 45.9381443,49.3453608 C45.9381443,42.5721649 24.1340206,44.9845361 24.1340206,30.5103093 C24.1340206,21.8814433 32.4845361,16.5 41.3917526,16.5 C47.2371134,16.5 53.6391753,18.7268041 56.6082474,21.0463918 L50.9484536,29.7680412 C48.628866,28.0979381 45.5670103,26.7061856 42.3195876,26.7061856 C38.9793814,26.7061856 36.1958763,28.0051546 36.1958763,30.3247423 C36.1958763,36.1701031 58,33.8505155 58,49.4381443 C58,58.0670103 49.556701,63.3556701 40.0927835,63.3556701 C33.8762887,63.3556701 27.2886598,61.2216495 22,57.3247423 Z" id="Brown-Bold" fill="#FFFFFF"></path>
    </g>
</svg>